<svg xmlns="http://www.w3.org/2000/svg" viewBox="0 0 32 40"><g fill="#ffffff" color="#000" font-weight="400" font-family="sans-serif" stroke-width="2" stroke-linecap="round" stroke-linejoin="round"><path style="line-height:normal;font-variant-ligatures:normal;font-variant-position:normal;font-variant-caps:normal;font-variant-numeric:normal;font-variant-alternates:normal;font-feature-settings:normal;text-indent:0;text-align:start;text-decoration-line:none;text-decoration-style:solid;text-decoration-color:#000;text-transform:none;text-orientation:mixed;white-space:normal;shape-padding:0;isolation:auto;mix-blend-mode:normal;solid-color:#000;solid-opacity:1" d="M19.916 4a1 1 0 0 0-.692.293L6.496 17.022a1 1 0 0 0-.076 1.326l-2.127 2.127a1 1 0 0 0-.293.707v2.828a1 1 0 0 0 1 1h2.828a1 1 0 0 0 .707-.293l2.121-2.121.082.082a1 1 0 0 0 1.414 0L24.881 9.95a1 1 0 0 0 0-1.414l-4.242-4.244A1 1 0 0 0 19.916 4zm.016 2.414l2.828 2.83-11.314 11.313-.033-.031a1 1 0 0 0-.05-.051l-2.745-2.746zM7.828 19.768l1.414 1.414-1.828 1.828H6v-1.414z" overflow="visible"/><path style="line-height:normal;font-variant-ligatures:normal;font-variant-position:normal;font-variant-caps:normal;font-variant-numeric:normal;font-variant-alternates:normal;font-feature-settings:normal;text-indent:0;text-align:start;text-decoration-line:none;text-decoration-style:solid;text-decoration-color:#000;text-transform:none;text-orientation:mixed;white-space:normal;shape-padding:0;isolation:auto;mix-blend-mode:normal;solid-color:#000;solid-opacity:1" d="M17.072 21a1 1 0 0 0-.707.293l-5 5A1 1 0 0 0 12.072 28H27a1 1 0 0 0 1-1v-5a1 1 0 0 0-1-1zm.414 2H26v3H14.486z" overflow="visible"/></g><text y="47" font-size="5" font-weight="bold" font-family="'Helvetica Neue', Helvetica, Arial-Unicode, Arial, Sans-serif">Created by Ranah Pixel Studio</text><text y="52" font-size="5" font-weight="bold" font-family="'Helvetica Neue', Helvetica, Arial-Unicode, Arial, Sans-serif">from the Noun Project</text></svg>