<?xml version="1.0" encoding="iso-8859-1"?>
<!DOCTYPE svg PUBLIC "-//W3C//DTD SVG 1.1//EN" "http://www.w3.org/Graphics/SVG/1.1/DTD/svg11.dtd">
<svg 
 version="1.1" xmlns="http://www.w3.org/2000/svg" xmlns:xlink="http://www.w3.org/1999/xlink" x="0px" y="0px" width="512px"
	 height="512px" viewBox="0 0 512 512" enable-background="new 0 0 512 512" xml:space="preserve"
><g id="b75708d097f2188dff6617b0f00e9080"><g></g><g fill="#ffffff"><path display="inline" d="M426.331,51.6v408.8c0,28.102-21.9,51.1-48.669,51.1C350.9,511.5,329,488.502,329,460.4V51.6
		c0-28.106,21.9-51.1,48.662-51.1C404.431,0.5,426.331,23.494,426.331,51.6z M134.331,0.5c-26.762,0-48.662,22.994-48.662,51.1
		v408.8c0,28.102,21.9,51.1,48.662,51.1C161.1,511.5,183,488.502,183,460.4V51.6C183,23.494,161.1,0.5,134.331,0.5z"></path></g></g></svg>