<?xml version="1.0" encoding="UTF-8"?>
<svg width="455px" height="968px" viewBox="0 0 455 968" version="1.1" xmlns="http://www.w3.org/2000/svg" xmlns:xlink="http://www.w3.org/1999/xlink">
    <!-- Generator: Sketch 64 (93537) - https://sketch.com -->
    <title>Pixel 4 Copy 2</title>
    <desc>Created with Sketch.</desc>
    <g id="Pixel-4-Copy-2" stroke="none" stroke-width="1" fill="none" fill-rule="evenodd">
        <g id="Pixel-4">
            <path d="M452.740841,324 C451.780699,343.897001 451.725789,423.232413 452.740841,443 L455,441.503164 L455,325.496836 L452.740841,324 Z" id="volume" fill="#0C0B0C"></path>
            <path d="M455,205.529874 C455,204.267296 454.370887,203.08805 453.322888,202.388365 C452.99029,202.166667 452.740841,202 452.740841,202 C451.780699,222.064465 451.725789,242.06761 452.740841,262 C452.740841,262 452.99029,261.833333 453.322888,261.611635 C454.370887,260.91195 455,259.732704 455,258.470126" id="lock" fill="#FE8468"></path>
            <path d="M386.147577,0 C427.057269,0 453,21.9320288 453,66.7929969 L453,901.207003 C453,942.08033 430.050661,968 386.147577,968 L67.35,968 C22.4491189,968 0,941.083419 0,901.207003 L0,67.29 C0,27.4135839 22.4491189,0 67.35,0 L386.147577,0 Z M396,66 L57.5,66 C37.617749,66 21.5,82.117749 21.5,102 L21.5,102 L21.5,899 C21.5,918.882251 37.617749,935 57.5,935 L57.5,935 L396,935 C415.882251,935 432,918.882251 432,899 L432,899 L432,102 C432,82.117749 415.882251,66 396,66 L396,66 Z" id="Combined-Shape" fill="#292929"></path>
            <path d="M390,12 C427,12 443,33.9304531 443,65.829294 L443,908.158061 C443,933.079031 427,958 390,958 L63.5,958 C26.5,958 10.5,933.079031 10.5,908.158061 L10.5,65.829294 C10.5,33.9304531 26.5,12 63.5,12 L390,12 Z M396,66 L57.5,66 C37.617749,66 21.5,82.117749 21.5,102 L21.5,102 L21.5,899 C21.5,918.882251 37.617749,935 57.5,935 L57.5,935 L396,935 C415.882251,935 432,918.882251 432,899 L432,899 L432,102 C432,82.117749 415.882251,66 396,66 L396,66 Z" id="Combined-Shape" fill="#0C0B0C"></path>
            <path d="M207.5,36 L246.5,36 C248.985281,36 251,38.0147186 251,40.5 C251,42.9852814 248.985281,45 246.5,45 L207.5,45 C205.014719,45 203,42.9852814 203,40.5 C203,38.0147186 205.014719,36 207.5,36 Z" id="speaker" fill="#252525"></path>
            <circle id="cam" fill="#252525" cx="131.5" cy="40.5" r="8.5"></circle>
        </g>
    </g>
</svg>